<svg width="60" height="54" viewBox="0 0 60 54" fill="none" xmlns="http://www.w3.org/2000/svg">
<path d="M60 26.7224C60 22.7477 55.0224 18.9808 47.391 16.6449C49.1521 8.86669 48.3693 2.67835 44.9205 0.697105C44.1256 0.232368 43.1961 0.0122297 42.181 0.0122297V2.7395C42.7436 2.7395 43.1961 2.84957 43.5752 3.05748C45.2385 4.01141 45.9601 7.6437 45.3975 12.3155C45.2629 13.4651 45.0428 14.6759 44.7737 15.9111C42.3767 15.3241 39.7595 14.8716 37.0077 14.5781C35.3567 12.3155 33.6445 10.2609 31.9201 8.46311C35.9071 4.75744 39.6494 2.72727 42.1932 2.72727V0C38.83 0 34.4272 2.39707 29.9755 6.55524C25.5239 2.42153 21.1211 0.0489199 17.7578 0.0489199V2.77619C20.2894 2.77619 24.044 4.79413 28.031 8.47534C26.3188 10.2731 24.6066 12.3155 22.98 14.5781C20.2161 14.8716 17.5989 15.3241 15.2018 15.9234C14.9205 14.7004 14.7126 13.5141 14.5658 12.3767C13.991 7.70485 14.7004 4.07256 16.3514 3.1064C16.7183 2.88626 17.1953 2.78842 17.7578 2.78842V0.0611496C16.7305 0.0611496 15.8011 0.281288 14.9939 0.746025C11.5573 2.72727 10.7868 8.90338 12.5601 16.6572C4.95312 19.0053 0 22.7599 0 26.7224C0 30.6971 4.97758 34.4639 12.6091 36.7998C10.8479 44.5781 11.6307 50.7664 15.0795 52.7477C15.8744 53.2124 16.8039 53.4325 17.8312 53.4325C21.1945 53.4325 25.5972 51.0355 30.0489 46.8773C34.5006 51.011 38.9034 53.3836 42.2666 53.3836C43.2939 53.3836 44.2234 53.1635 45.0306 52.6987C48.4672 50.7175 49.2377 44.5414 47.4643 36.7876C55.0469 34.4517 60 30.6849 60 26.7224ZM44.0766 18.565C43.6241 20.1427 43.0616 21.7693 42.4256 23.3958C41.9242 22.4174 41.3983 21.4391 40.8235 20.4607C40.2609 19.4823 39.6616 18.5283 39.0624 17.5989C40.799 17.8557 42.4745 18.1737 44.0766 18.565ZM38.4753 31.5899C37.5214 33.2409 36.543 34.8064 35.5279 36.2617C33.7057 36.4207 31.859 36.5063 30 36.5063C28.1533 36.5063 26.3066 36.4207 24.4965 36.274C23.4815 34.8186 22.4908 33.2654 21.5369 31.6266C20.6074 30.0245 19.7636 28.3979 18.9931 26.7591C19.7513 25.1203 20.6074 23.4815 21.5247 21.8793C22.4786 20.2283 23.457 18.6629 24.4721 17.2075C26.2943 17.0485 28.1411 16.9629 30 16.9629C31.8467 16.9629 33.6934 17.0485 35.5035 17.1953C36.5186 18.6506 37.5092 20.2038 38.4631 21.8426C39.3926 23.4448 40.2364 25.0713 41.0069 26.7102C40.2364 28.349 39.3926 29.9878 38.4753 31.5899ZM42.4256 30C43.086 31.6388 43.6486 33.2776 44.1133 34.8675C42.5112 35.2589 40.8235 35.5891 39.0746 35.8459C39.6739 34.9042 40.2731 33.938 40.8357 32.9474C41.3983 31.969 41.9242 30.9784 42.4256 30ZM30.0245 43.0493C28.8871 41.8753 27.7497 40.5667 26.6245 39.1358C27.7252 39.1847 28.8504 39.2214 29.9878 39.2214C31.1374 39.2214 32.2748 39.1969 33.3877 39.1358C32.287 40.5667 31.1496 41.8753 30.0245 43.0493ZM20.9254 35.8459C19.1887 35.5891 17.5132 35.2711 15.9111 34.8797C16.3636 33.3021 16.9262 31.6755 17.5622 30.0489C18.0636 31.0273 18.5895 32.0057 19.1643 32.9841C19.7391 33.9625 20.3261 34.9164 20.9254 35.8459ZM29.9633 10.3954C31.1007 11.5695 32.2381 12.8781 33.3632 14.309C32.2625 14.2601 31.1374 14.2234 30 14.2234C28.8504 14.2234 27.713 14.2479 26.6001 14.309C27.7008 12.8781 28.8382 11.5695 29.9633 10.3954ZM20.9132 17.5989C20.3139 18.5406 19.7146 19.5067 19.1521 20.4974C18.5895 21.4757 18.0636 22.4541 17.5622 23.4325C16.9018 21.7937 16.3392 20.1549 15.8744 18.565C17.4766 18.1859 19.1643 17.8557 20.9132 17.5989ZM9.84509 32.9107C5.5157 31.064 2.71504 28.6425 2.71504 26.7224C2.71504 24.8023 5.5157 22.3685 9.84509 20.534C10.8969 20.0815 12.0465 19.6779 13.2328 19.2988C13.9299 21.6959 14.8471 24.1908 15.9845 26.7468C14.8594 29.2907 13.9543 31.7733 13.2695 34.1582C12.0587 33.779 10.9091 33.3632 9.84509 32.9107ZM16.4248 50.3873C14.7615 49.4333 14.04 45.8011 14.6025 41.1292C14.7371 39.9796 14.9572 38.7689 15.2263 37.5336C17.6233 38.1207 20.2405 38.5732 22.9923 38.8667C24.6433 41.1292 26.3555 43.1839 28.0799 44.9817C24.0929 48.6873 20.3506 50.7175 17.8068 50.7175C17.2564 50.7053 16.7917 50.5952 16.4248 50.3873ZM45.4342 41.0681C46.009 45.7399 45.2996 49.3722 43.6486 50.3384C43.2817 50.5585 42.8047 50.6563 42.2422 50.6563C39.7106 50.6563 35.956 48.6384 31.969 44.9572C33.6812 43.1594 35.3934 41.117 37.02 38.8545C39.7839 38.5609 42.4011 38.1084 44.7982 37.5092C45.0795 38.7444 45.2996 39.9307 45.4342 41.0681ZM50.1427 32.9107C49.0909 33.3632 47.9413 33.7668 46.755 34.1459C46.0579 31.7489 45.1406 29.254 44.0033 26.6979C45.1284 24.1541 46.0334 21.6714 46.7183 19.2866C47.9291 19.6657 49.0787 20.0815 50.1549 20.534C54.4843 22.3808 57.285 24.8023 57.285 26.7224C57.2727 28.6425 54.4721 31.0762 50.1427 32.9107Z" fill="#252525"/>
<path d="M29.9878 32.3115C33.0745 32.3115 35.5768 29.8091 35.5768 26.7224C35.5768 23.6356 33.0745 21.1333 29.9878 21.1333C26.901 21.1333 24.3987 23.6356 24.3987 26.7224C24.3987 29.8091 26.901 32.3115 29.9878 32.3115Z" fill="#252525"/>
</svg>
